<svg width="81" height="20" viewBox="0 0 81 20" fill="none" xmlns="http://www.w3.org/2000/svg">
<rect width="81" height="20" rx="3" fill="#DF894B"/>
<path d="M8.2207 11.334C8.27539 11.7285 8.38281 12.0234 8.54297 12.2188C8.83594 12.5742 9.33789 12.752 10.0488 12.752C10.4746 12.752 10.8203 12.7051 11.0859 12.6113C11.5898 12.4316 11.8418 12.0977 11.8418 11.6094C11.8418 11.3242 11.7168 11.1035 11.4668 10.9473C11.2168 10.7949 10.8242 10.6602 10.2891 10.543L9.375 10.3379C8.47656 10.1348 7.85547 9.91406 7.51172 9.67578C6.92969 9.27734 6.63867 8.6543 6.63867 7.80664C6.63867 7.0332 6.91992 6.39062 7.48242 5.87891C8.04492 5.36719 8.87109 5.11133 9.96094 5.11133C10.8711 5.11133 11.6465 5.35352 12.2871 5.83789C12.9316 6.31836 13.2695 7.01758 13.3008 7.93555H11.5664C11.5352 7.41602 11.3086 7.04688 10.8867 6.82812C10.6055 6.68359 10.2559 6.61133 9.83789 6.61133C9.37305 6.61133 9.00195 6.70508 8.72461 6.89258C8.44727 7.08008 8.30859 7.3418 8.30859 7.67773C8.30859 7.98633 8.44531 8.2168 8.71875 8.36914C8.89453 8.4707 9.26953 8.58984 9.84375 8.72656L11.332 9.08398C11.9844 9.24023 12.4766 9.44922 12.8086 9.71094C13.3242 10.1172 13.582 10.7051 13.582 11.4746C13.582 12.2637 13.2793 12.9199 12.6738 13.4434C12.0723 13.9629 11.2207 14.2227 10.1191 14.2227C8.99414 14.2227 8.10938 13.9668 7.46484 13.4551C6.82031 12.9395 6.49805 12.2324 6.49805 11.334H8.2207ZM19.1836 10.8066C19.1836 10.3145 19.0703 9.87891 18.8438 9.5C18.6211 9.12109 18.2578 8.93164 17.7539 8.93164C17.1484 8.93164 16.7324 9.21875 16.5059 9.79297C16.3887 10.0977 16.3301 10.4844 16.3301 10.9531C16.3301 11.6953 16.5273 12.2168 16.9219 12.5176C17.1562 12.6934 17.4336 12.7812 17.7539 12.7812C18.2188 12.7812 18.5723 12.6016 18.8145 12.2422C19.0605 11.8828 19.1836 11.4043 19.1836 10.8066ZM18.2344 7.47266C18.9805 7.47266 19.6113 7.74805 20.127 8.29883C20.6465 8.84961 20.9062 9.6582 20.9062 10.7246C20.9062 11.8496 20.6523 12.707 20.1445 13.2969C19.6406 13.8867 18.9902 14.1816 18.1934 14.1816C17.6855 14.1816 17.2637 14.0547 16.9277 13.8008C16.7441 13.6602 16.5645 13.4551 16.3887 13.1855V16.5137H14.7363V7.61328H16.3359V8.55664C16.5156 8.2793 16.707 8.06055 16.9102 7.90039C17.2812 7.61523 17.7227 7.47266 18.2344 7.47266ZM24.9844 12.8223C25.4727 12.8223 25.8477 12.6484 26.1094 12.3008C26.3711 11.9531 26.502 11.459 26.502 10.8184C26.502 10.1777 26.3711 9.68555 26.1094 9.3418C25.8477 8.99414 25.4727 8.82031 24.9844 8.82031C24.4961 8.82031 24.1191 8.99414 23.8535 9.3418C23.5918 9.68555 23.4609 10.1777 23.4609 10.8184C23.4609 11.459 23.5918 11.9531 23.8535 12.3008C24.1191 12.6484 24.4961 12.8223 24.9844 12.8223ZM28.2539 10.8184C28.2539 11.7559 27.9844 12.5586 27.4453 13.2266C26.9062 13.8906 26.0879 14.2227 24.9902 14.2227C23.8926 14.2227 23.0742 13.8906 22.5352 13.2266C21.9961 12.5586 21.7266 11.7559 21.7266 10.8184C21.7266 9.89648 21.9961 9.09766 22.5352 8.42188C23.0742 7.74609 23.8926 7.4082 24.9902 7.4082C26.0879 7.4082 26.9062 7.74609 27.4453 8.42188C27.9844 9.09766 28.2539 9.89648 28.2539 10.8184ZM32.9941 7.46094C33.6543 7.46094 34.1934 7.63477 34.6113 7.98242C35.0332 8.32617 35.2441 8.89844 35.2441 9.69922V14H33.5332V10.1152C33.5332 9.7793 33.4883 9.52148 33.3984 9.3418C33.2344 9.01367 32.9219 8.84961 32.4609 8.84961C31.8945 8.84961 31.5059 9.08984 31.2949 9.57031C31.1855 9.82422 31.1309 10.1484 31.1309 10.543V14H29.4668V7.625H31.0781V8.55664C31.293 8.22852 31.4961 7.99219 31.6875 7.84766C32.0312 7.58984 32.4668 7.46094 32.9941 7.46094ZM38.0918 11.9609C38.127 12.2578 38.2031 12.4688 38.3203 12.5938C38.5273 12.8164 38.9102 12.9277 39.4688 12.9277C39.7969 12.9277 40.0566 12.8789 40.248 12.7812C40.4434 12.6836 40.541 12.5371 40.541 12.3418C40.541 12.1543 40.4629 12.0117 40.3066 11.9141C40.1504 11.8164 39.5703 11.6484 38.5664 11.4102C37.8438 11.2305 37.334 11.0059 37.0371 10.7363C36.7402 10.4707 36.5918 10.0879 36.5918 9.58789C36.5918 8.99805 36.8223 8.49219 37.2832 8.07031C37.748 7.64453 38.4004 7.43164 39.2402 7.43164C40.0371 7.43164 40.6855 7.5918 41.1855 7.91211C41.6895 8.22852 41.9785 8.77734 42.0527 9.55859H40.3828C40.3594 9.34375 40.2988 9.17383 40.2012 9.04883C40.0176 8.82227 39.7051 8.70898 39.2637 8.70898C38.9004 8.70898 38.6406 8.76562 38.4844 8.87891C38.332 8.99219 38.2559 9.125 38.2559 9.27734C38.2559 9.46875 38.3379 9.60742 38.502 9.69336C38.666 9.7832 39.2461 9.9375 40.2422 10.1562C40.9062 10.3125 41.4043 10.5488 41.7363 10.8652C42.0645 11.1855 42.2285 11.5859 42.2285 12.0664C42.2285 12.6992 41.9922 13.2168 41.5195 13.6191C41.0508 14.0176 40.3242 14.2168 39.3398 14.2168C38.3359 14.2168 37.5938 14.0059 37.1133 13.584C36.6367 13.1582 36.3984 12.6172 36.3984 11.9609H38.0918ZM46.3359 12.8223C46.8242 12.8223 47.1992 12.6484 47.4609 12.3008C47.7227 11.9531 47.8535 11.459 47.8535 10.8184C47.8535 10.1777 47.7227 9.68555 47.4609 9.3418C47.1992 8.99414 46.8242 8.82031 46.3359 8.82031C45.8477 8.82031 45.4707 8.99414 45.2051 9.3418C44.9434 9.68555 44.8125 10.1777 44.8125 10.8184C44.8125 11.459 44.9434 11.9531 45.2051 12.3008C45.4707 12.6484 45.8477 12.8223 46.3359 12.8223ZM49.6055 10.8184C49.6055 11.7559 49.3359 12.5586 48.7969 13.2266C48.2578 13.8906 47.4395 14.2227 46.3418 14.2227C45.2441 14.2227 44.4258 13.8906 43.8867 13.2266C43.3477 12.5586 43.0781 11.7559 43.0781 10.8184C43.0781 9.89648 43.3477 9.09766 43.8867 8.42188C44.4258 7.74609 45.2441 7.4082 46.3418 7.4082C47.4395 7.4082 48.2578 7.74609 48.7969 8.42188C49.3359 9.09766 49.6055 9.89648 49.6055 10.8184ZM54.2754 7.46094C54.3066 7.46094 54.332 7.46289 54.3516 7.4668C54.375 7.4668 54.4238 7.46875 54.498 7.47266V9.18359C54.3926 9.17188 54.2988 9.16406 54.2168 9.16016C54.1348 9.15625 54.0684 9.1543 54.0176 9.1543C53.3457 9.1543 52.8945 9.37305 52.6641 9.81055C52.5352 10.0566 52.4707 10.4355 52.4707 10.9473V14H50.7891V7.61328H52.3828V8.72656C52.6406 8.30078 52.8652 8.00977 53.0566 7.85352C53.3691 7.5918 53.7754 7.46094 54.2754 7.46094ZM65.959 7.47266C66.2402 7.47266 66.5176 7.52734 66.791 7.63672C67.0645 7.74609 67.3125 7.9375 67.5352 8.21094C67.7148 8.43359 67.8359 8.70703 67.8984 9.03125C67.9375 9.24609 67.957 9.56055 67.957 9.97461L67.9453 14H66.2344V9.93359C66.2344 9.69141 66.1953 9.49219 66.1172 9.33594C65.9688 9.03906 65.6953 8.89062 65.2969 8.89062C64.8359 8.89062 64.5176 9.08203 64.3418 9.46484C64.252 9.66797 64.207 9.91211 64.207 10.1973V14H62.5254V10.1973C62.5254 9.81836 62.4863 9.54297 62.4082 9.37109C62.2676 9.0625 61.9922 8.9082 61.582 8.9082C61.1055 8.9082 60.7852 9.0625 60.6211 9.37109C60.5312 9.54688 60.4863 9.80859 60.4863 10.1562V14H58.793V7.625H60.416V8.55664C60.623 8.22461 60.8184 7.98828 61.002 7.84766C61.3262 7.59766 61.7461 7.47266 62.2617 7.47266C62.75 7.47266 63.1445 7.58008 63.4453 7.79492C63.6875 7.99414 63.8711 8.25 63.9961 8.5625C64.2148 8.1875 64.4863 7.91211 64.8105 7.73633C65.1543 7.56055 65.5371 7.47266 65.959 7.47266ZM72.0176 8.82031C71.6309 8.82031 71.3301 8.94141 71.1152 9.18359C70.9043 9.42578 70.7715 9.75391 70.7168 10.168H73.3125C73.2852 9.72656 73.1504 9.39258 72.9082 9.16602C72.6699 8.93555 72.373 8.82031 72.0176 8.82031ZM72.0176 7.44336C72.5488 7.44336 73.0273 7.54297 73.4531 7.74219C73.8789 7.94141 74.2305 8.25586 74.5078 8.68555C74.7578 9.06445 74.9199 9.50391 74.9941 10.0039C75.0371 10.2969 75.0547 10.7188 75.0469 11.2695H70.6758C70.6992 11.9102 70.9004 12.3594 71.2793 12.6172C71.5098 12.7773 71.7871 12.8574 72.1113 12.8574C72.4551 12.8574 72.7344 12.7598 72.9492 12.5645C73.0664 12.459 73.1699 12.3125 73.2598 12.125H74.9648C74.9219 12.5039 74.7246 12.8887 74.373 13.2793C73.8262 13.9004 73.0605 14.2109 72.0762 14.2109C71.2637 14.2109 70.5469 13.9492 69.9258 13.4258C69.3047 12.9023 68.9941 12.0508 68.9941 10.8711C68.9941 9.76562 69.2734 8.91797 69.832 8.32812C70.3945 7.73828 71.123 7.44336 72.0176 7.44336Z" fill="white"/>
</svg>
