<?xml version="1.0" encoding="utf-8"?>
<!-- Generator: Adobe Illustrator 20.1.0, SVG Export Plug-In . SVG Version: 6.00 Build 0)  -->
<svg version="1.1" id="Layer_1" xmlns="http://www.w3.org/2000/svg" xmlns:xlink="http://www.w3.org/1999/xlink" x="0px" y="0px"
	 viewBox="0 0 794 342" style="enable-background:new 0 0 794 342;" xml:space="preserve">
<style type="text/css">
	.st0{fill:#28333D;}
</style>
<path class="st0" d="M173.7,328.3c-86.8,0-157.4-70.6-157.4-157.4S86.9,13.5,173.7,13.5s157.4,70.6,157.4,157.4
	S260.5,328.3,173.7,328.3z M173.7,24.4C93,24.4,27.3,90.1,27.3,170.9S93,317.3,173.7,317.3s146.4-65.7,146.4-146.4
	S254.5,24.4,173.7,24.4z"/>
<g>
	<path class="st0" d="M478.5,37.2c19,0,33.6,13.5,33.6,34.4s-14.6,34.4-33.6,34.4c-19,0-33.6-13.5-33.6-34.4S459.5,37.2,478.5,37.2z
		 M478.5,96.3c13.6,0,22.8-9.9,22.8-24.7c0-14.8-9.2-24.7-22.8-24.7s-22.8,9.9-22.8,24.7C455.7,86.4,464.9,96.3,478.5,96.3z"/>
	<path class="st0" d="M521.7,39.9c0-0.9,0.4-1.3,1.3-1.3h7.7c0.9,0,1.3,0.4,1.3,1.3v6.2c4.7-5.1,12.7-8.8,21.6-8.8
		c17.8,0,29.5,14,29.5,34.4s-11.7,34.4-29.5,34.4c-9.1,0-16.5-4-21.6-9V125c0,0.9-0.4,1.3-1.3,1.3H523c-0.9,0-1.3-0.4-1.3-1.3V39.9z
		 M551.9,96.3c13.5,0,20.4-10.2,20.4-24.7s-7-24.7-20.4-24.7c-12.9,0-21,10.2-21,24.7S538.9,96.3,551.9,96.3z"/>
	<path class="st0" d="M601.9,74.8c1.1,12.9,9.2,21.5,22.2,21.5c9.1,0,15.8-3.6,19.4-12.1c0.4-1.1,0.9-1.2,1.8-1.2h8.6
		c0.7,0,0.9,0.4,0.9,0.9c0,0.3,0,0.5-0.3,1.3c-5,14-16.1,20.8-30.7,20.8c-20.2,0-33-15-33-34.4s13.9-34.4,33-34.4
		c20.1,0,32.3,15.8,32.3,34.2v2.1c0,0.9-0.4,1.3-1.3,1.3H601.9z M602.4,65.1H645C642.9,54.3,634.6,47,623.8,47
		C613.7,47,604.8,53.1,602.4,65.1z"/>
	<path class="st0" d="M666.9,39.9c0-0.9,0.4-1.3,1.3-1.3h7.7c0.9,0,1.3,0.4,1.3,1.3v7.5c5.1-6.2,12.4-10.2,21.9-10.2
		c13.9,0,23,8.6,23,24v42.2c0,0.9-0.4,1.3-1.3,1.3h-7.7c-0.9,0-1.3-0.4-1.3-1.3V62.8c0-10.7-5.5-15.8-15-15.8
		c-11.1,0-19.5,8-19.5,24v32.5c0,0.9-0.4,1.3-1.3,1.3h-7.7c-0.9,0-1.3-0.4-1.3-1.3V39.9z"/>
	<path class="st0" d="M418.2,205.3c-15.4,0-27.8-9.1-27.8-21.5c0-0.8,0.4-1.3,1.3-1.3h8.4c0.9,0,1.2,0.4,1.3,1.3
		c1.1,7.7,7.3,11.7,17.2,11.7c8.8,0,15.3-2.8,15.3-9.6c0-6.9-5.8-9.2-19.3-11.3c-15.8-2.5-22.6-7.7-22.6-19.3
		c0-12.1,11.1-18.9,25.1-18.9c14.8,0,23.9,7.5,25.5,19c0,0.8-0.4,1.3-1.3,1.3h-7.4c-0.9,0-1.1-0.4-1.3-1.3c-2-6.5-8.7-9.2-15.8-9.2
		c-8.4,0-14.4,2.9-14.4,8.8c0,6.5,5.3,8.7,18.6,11.1c12.7,2.2,23.7,5.9,23.7,18.5C444.8,197.9,433.7,205.3,418.2,205.3z"/>
	<path class="st0" d="M485,136.4c19,0,33.6,13.5,33.6,34.4S504,205.3,485,205.3c-19,0-33.6-13.5-33.6-34.4S466,136.4,485,136.4z
		 M485,195.5c13.6,0,22.8-9.9,22.8-24.7c0-14.8-9.2-24.7-22.8-24.7c-13.6,0-22.8,9.9-22.8,24.7C462.2,185.7,471.4,195.5,485,195.5z"
		/>
	<path class="st0" d="M583.9,202.7c0,0.9-0.4,1.3-1.3,1.3H575c-0.9,0-1.3-0.4-1.3-1.3v-7.5c-5.1,6.2-12.5,10.2-21.9,10.2
		c-13.9,0-23-8.6-23-24v-42.2c0-0.9,0.4-1.3,1.3-1.3h7.7c0.9,0,1.3,0.4,1.3,1.3v40.6c0,10.7,5.5,15.8,15,15.8c11.1,0,19.5-8,19.5-24
		v-32.5c0-0.9,0.4-1.3,1.3-1.3h7.7c0.9,0,1.3,0.4,1.3,1.3V202.7z"/>
	<path class="st0" d="M639.3,148.8c0,0.8-0.5,1.5-1.5,1.5c-5.4-2.8-8.8-4.1-14.2-4.1c-9.5,0-16.1,9-16.1,20.6v35.9
		c0,0.9-0.4,1.3-1.3,1.3h-7.7c-0.9,0-1.3-0.4-1.3-1.3v-63.6c0-0.9,0.4-1.3,1.3-1.3h7.7c0.9,0,1.3,0.4,1.3,1.3v7.3
		c4-5.4,10.3-9.9,19.3-9.9c4.4,0,7.4,0.9,10.9,2.1c0.8,0.3,1.5,1.1,1.6,2.4V148.8z"/>
	<path class="st0" d="M653.8,170.9c0,15.7,8.8,24.7,21.9,24.7c9,0,16-4.7,18.7-13.2c0.4-1.1,0.9-1.2,1.8-1.2h8
		c0.5,0,0.9,0.3,0.9,0.8c0,0.3,0,0.8-0.1,1.3c-3.3,13.2-13.3,22-29.4,22c-19.9,0-32.7-14.8-32.7-34.4c0-19.7,12.8-34.4,32.7-34.4
		c16.1,0,26.1,8.8,29.4,22c0.1,0.5,0.1,1.1,0.1,1.3c0,0.5-0.4,0.8-0.9,0.8h-8c-0.9,0-1.5-0.1-1.8-1.2c-2.8-8.4-9.8-13.2-18.7-13.2
		C662.7,146.2,653.8,155.2,653.8,170.9z"/>
	<path class="st0" d="M723.1,174c1.1,12.9,9.2,21.5,22.2,21.5c9.1,0,15.8-3.6,19.4-12.1c0.4-1.1,0.9-1.2,1.8-1.2h8.6
		c0.7,0,0.9,0.4,0.9,0.9c0,0.3,0,0.5-0.3,1.3c-5,14-16.1,20.8-30.7,20.8c-20.2,0-33-15-33-34.4s13.9-34.4,33-34.4
		c20.1,0,32.3,15.8,32.3,34.2v2.1c0,0.9-0.4,1.3-1.3,1.3H723.1z M723.6,164.3h42.6c-2.1-10.8-10.4-18.1-21.2-18.1
		C735,146.2,726,152.3,723.6,164.3z"/>
	<path class="st0" d="M481.9,270.1c0,15.7,8.8,24.7,21.9,24.7c9,0,16-4.7,18.7-13.2c0.4-1.1,0.9-1.2,1.8-1.2h8
		c0.5,0,0.9,0.3,0.9,0.8c0,0.3,0,0.8-0.1,1.3c-3.3,13.2-13.3,22-29.4,22c-19.9,0-32.7-14.8-32.7-34.4s12.8-34.4,32.7-34.4
		c16.1,0,26.1,8.8,29.4,22c0.1,0.5,0.1,1.1,0.1,1.3c0,0.5-0.4,0.8-0.9,0.8h-8c-0.9,0-1.5-0.1-1.8-1.2c-2.8-8.4-9.8-13.2-18.7-13.2
		C490.7,245.4,481.9,254.4,481.9,270.1z"/>
	<path class="st0" d="M573.7,235.7c19,0,33.6,13.5,33.6,34.4s-14.6,34.4-33.6,34.4c-19,0-33.6-13.5-33.6-34.4
		S554.7,235.7,573.7,235.7z M573.7,294.8c13.6,0,22.8-9.9,22.8-24.7c0-14.8-9.2-24.7-22.8-24.7s-22.8,9.9-22.8,24.7
		C550.9,284.9,560.1,294.8,573.7,294.8z"/>
	<path class="st0" d="M615.1,213.3c0-0.9,0.4-1.3,1.3-1.3h11.3c0.9,0,1.3,0.4,1.3,1.3v11.3c0,0.9-0.4,1.3-1.3,1.3h-11.3
		c-0.9,0-1.3-0.4-1.3-1.3V213.3z M617,238.3c0-0.9,0.4-1.3,1.3-1.3h7.7c0.9,0,1.3,0.4,1.3,1.3v63.6c0,0.9-0.4,1.3-1.3,1.3h-7.7
		c-0.9,0-1.3-0.4-1.3-1.3V238.3z"/>
	<path class="st0" d="M639.5,238.3c0-0.9,0.4-1.3,1.3-1.3h7.7c0.9,0,1.3,0.4,1.3,1.3v7.5c5.1-6.2,12.4-10.2,21.9-10.2
		c13.9,0,23,8.6,23,24v42.2c0,0.9-0.4,1.3-1.3,1.3h-7.7c-0.9,0-1.3-0.4-1.3-1.3v-40.6c0-10.7-5.5-15.8-15-15.8
		c-11.1,0-19.5,8-19.5,24v32.5c0,0.9-0.4,1.3-1.3,1.3h-7.7c-0.9,0-1.3-0.4-1.3-1.3V238.3z"/>
</g>
</svg>
